<svg xmlns="http://www.w3.org/2000/svg" viewBox="0 0 1600 1000" width="1600" height="1000" role="img">
<rect width="1600" height="1000" fill="#EDEBE6"/>
<g font-family="General Sans,Helvetica Neue,Helvetica,Arial,sans-serif">
<path d="M 46.0,46.0 L 72.0,46.0" fill="none" stroke="#8C8378" stroke-width="1.5" opacity="0.55" stroke-linecap="round" stroke-linejoin="round"/>
<path d="M 46.0,46.0 L 46.0,72.0" fill="none" stroke="#8C8378" stroke-width="1.5" opacity="0.55" stroke-linecap="round" stroke-linejoin="round"/>
<path d="M 1554.0,46.0 L 1528.0,46.0" fill="none" stroke="#8C8378" stroke-width="1.5" opacity="0.55" stroke-linecap="round" stroke-linejoin="round"/>
<path d="M 1554.0,46.0 L 1554.0,72.0" fill="none" stroke="#8C8378" stroke-width="1.5" opacity="0.55" stroke-linecap="round" stroke-linejoin="round"/>
<path d="M 46.0,954.0 L 72.0,954.0" fill="none" stroke="#8C8378" stroke-width="1.5" opacity="0.55" stroke-linecap="round" stroke-linejoin="round"/>
<path d="M 46.0,954.0 L 46.0,928.0" fill="none" stroke="#8C8378" stroke-width="1.5" opacity="0.55" stroke-linecap="round" stroke-linejoin="round"/>
<path d="M 1554.0,954.0 L 1528.0,954.0" fill="none" stroke="#8C8378" stroke-width="1.5" opacity="0.55" stroke-linecap="round" stroke-linejoin="round"/>
<path d="M 1554.0,954.0 L 1554.0,928.0" fill="none" stroke="#8C8378" stroke-width="1.5" opacity="0.55" stroke-linecap="round" stroke-linejoin="round"/>
<text x="90" y="96" font-size="22" fill="#1B5C58" opacity="1" font-weight="600" letter-spacing="2.6" text-anchor="start">GE VERNOVA  /  ONSHORE WIND FLEET</text>
<text x="1510" y="96" font-size="22" fill="#8C8378" opacity="1" font-weight="500" letter-spacing="2.6" text-anchor="end">ROOT CAUSE ARCHIVE</text>
<path d="M 90.0,120.0 L 1510.0,120.0" fill="none" stroke="#1B5C58" stroke-width="1.6" opacity="0.45" stroke-linecap="round" stroke-linejoin="round"/>
<path d="M 150.0,300.0 L 150.0,232.0" fill="none" stroke="#8C8378" stroke-width="1.8" opacity="0.38" stroke-linecap="round" stroke-linejoin="round"/>
<path d="M 150.0,232.0 L 150.0,192.0" fill="none" stroke="#8C8378" stroke-width="1.8" opacity="0.38" stroke-linecap="round" stroke-linejoin="round"/>
<path d="M 150.0,232.0 L 184.6,252.0" fill="none" stroke="#8C8378" stroke-width="1.8" opacity="0.38" stroke-linecap="round" stroke-linejoin="round"/>
<path d="M 150.0,232.0 L 115.4,252.0" fill="none" stroke="#8C8378" stroke-width="1.8" opacity="0.38" stroke-linecap="round" stroke-linejoin="round"/>
<circle cx="150" cy="232" r="3" fill="#8C8378" stroke="#8C8378" stroke-width="0" opacity="0.38"/>
<path d="M 246.0,300.0 L 246.0,232.0" fill="none" stroke="#8C8378" stroke-width="1.8" opacity="0.38" stroke-linecap="round" stroke-linejoin="round"/>
<path d="M 246.0,232.0 L 246.0,192.0" fill="none" stroke="#8C8378" stroke-width="1.8" opacity="0.38" stroke-linecap="round" stroke-linejoin="round"/>
<path d="M 246.0,232.0 L 280.6,252.0" fill="none" stroke="#8C8378" stroke-width="1.8" opacity="0.38" stroke-linecap="round" stroke-linejoin="round"/>
<path d="M 246.0,232.0 L 211.4,252.0" fill="none" stroke="#8C8378" stroke-width="1.8" opacity="0.38" stroke-linecap="round" stroke-linejoin="round"/>
<circle cx="246" cy="232" r="3" fill="#8C8378" stroke="#8C8378" stroke-width="0" opacity="0.38"/>
<path d="M 342.0,300.0 L 342.0,232.0" fill="none" stroke="#8C8378" stroke-width="1.8" opacity="0.38" stroke-linecap="round" stroke-linejoin="round"/>
<path d="M 342.0,232.0 L 342.0,192.0" fill="none" stroke="#8C8378" stroke-width="1.8" opacity="0.38" stroke-linecap="round" stroke-linejoin="round"/>
<path d="M 342.0,232.0 L 376.6,252.0" fill="none" stroke="#8C8378" stroke-width="1.8" opacity="0.38" stroke-linecap="round" stroke-linejoin="round"/>
<path d="M 342.0,232.0 L 307.4,252.0" fill="none" stroke="#8C8378" stroke-width="1.8" opacity="0.38" stroke-linecap="round" stroke-linejoin="round"/>
<circle cx="342" cy="232" r="3" fill="#8C8378" stroke="#8C8378" stroke-width="0" opacity="0.38"/>
<path d="M 438.0,300.0 L 438.0,232.0" fill="none" stroke="#8C8378" stroke-width="1.8" opacity="0.38" stroke-linecap="round" stroke-linejoin="round"/>
<path d="M 438.0,232.0 L 438.0,192.0" fill="none" stroke="#8C8378" stroke-width="1.8" opacity="0.38" stroke-linecap="round" stroke-linejoin="round"/>
<path d="M 438.0,232.0 L 472.6,252.0" fill="none" stroke="#8C8378" stroke-width="1.8" opacity="0.38" stroke-linecap="round" stroke-linejoin="round"/>
<path d="M 438.0,232.0 L 403.4,252.0" fill="none" stroke="#8C8378" stroke-width="1.8" opacity="0.38" stroke-linecap="round" stroke-linejoin="round"/>
<circle cx="438" cy="232" r="3" fill="#8C8378" stroke="#8C8378" stroke-width="0" opacity="0.38"/>
<path d="M 534.0,300.0 L 534.0,232.0" fill="none" stroke="#1B5C58" stroke-width="1.8" opacity="0.75" stroke-linecap="round" stroke-linejoin="round"/>
<path d="M 534.0,232.0 L 534.0,192.0" fill="none" stroke="#1B5C58" stroke-width="1.8" opacity="0.75" stroke-linecap="round" stroke-linejoin="round"/>
<path d="M 534.0,232.0 L 568.6,252.0" fill="none" stroke="#1B5C58" stroke-width="1.8" opacity="0.75" stroke-linecap="round" stroke-linejoin="round"/>
<path d="M 534.0,232.0 L 499.4,252.0" fill="none" stroke="#1B5C58" stroke-width="1.8" opacity="0.75" stroke-linecap="round" stroke-linejoin="round"/>
<circle cx="534" cy="232" r="3" fill="#1B5C58" stroke="#1B5C58" stroke-width="0" opacity="0.75"/>
<path d="M 630.0,300.0 L 630.0,232.0" fill="none" stroke="#8C8378" stroke-width="1.8" opacity="0.38" stroke-linecap="round" stroke-linejoin="round"/>
<path d="M 630.0,232.0 L 630.0,192.0" fill="none" stroke="#8C8378" stroke-width="1.8" opacity="0.38" stroke-linecap="round" stroke-linejoin="round"/>
<path d="M 630.0,232.0 L 664.6,252.0" fill="none" stroke="#8C8378" stroke-width="1.8" opacity="0.38" stroke-linecap="round" stroke-linejoin="round"/>
<path d="M 630.0,232.0 L 595.4,252.0" fill="none" stroke="#8C8378" stroke-width="1.8" opacity="0.38" stroke-linecap="round" stroke-linejoin="round"/>
<circle cx="630" cy="232" r="3" fill="#8C8378" stroke="#8C8378" stroke-width="0" opacity="0.38"/>
<path d="M 726.0,300.0 L 726.0,232.0" fill="none" stroke="#8C8378" stroke-width="1.8" opacity="0.38" stroke-linecap="round" stroke-linejoin="round"/>
<path d="M 726.0,232.0 L 726.0,192.0" fill="none" stroke="#8C8378" stroke-width="1.8" opacity="0.38" stroke-linecap="round" stroke-linejoin="round"/>
<path d="M 726.0,232.0 L 760.6,252.0" fill="none" stroke="#8C8378" stroke-width="1.8" opacity="0.38" stroke-linecap="round" stroke-linejoin="round"/>
<path d="M 726.0,232.0 L 691.4,252.0" fill="none" stroke="#8C8378" stroke-width="1.8" opacity="0.38" stroke-linecap="round" stroke-linejoin="round"/>
<circle cx="726" cy="232" r="3" fill="#8C8378" stroke="#8C8378" stroke-width="0" opacity="0.38"/>
<path d="M 822.0,300.0 L 822.0,232.0" fill="none" stroke="#8C8378" stroke-width="1.8" opacity="0.38" stroke-linecap="round" stroke-linejoin="round"/>
<path d="M 822.0,232.0 L 822.0,192.0" fill="none" stroke="#8C8378" stroke-width="1.8" opacity="0.38" stroke-linecap="round" stroke-linejoin="round"/>
<path d="M 822.0,232.0 L 856.6,252.0" fill="none" stroke="#8C8378" stroke-width="1.8" opacity="0.38" stroke-linecap="round" stroke-linejoin="round"/>
<path d="M 822.0,232.0 L 787.4,252.0" fill="none" stroke="#8C8378" stroke-width="1.8" opacity="0.38" stroke-linecap="round" stroke-linejoin="round"/>
<circle cx="822" cy="232" r="3" fill="#8C8378" stroke="#8C8378" stroke-width="0" opacity="0.38"/>
<path d="M 918.0,300.0 L 918.0,232.0" fill="none" stroke="#8C8378" stroke-width="1.8" opacity="0.38" stroke-linecap="round" stroke-linejoin="round"/>
<path d="M 918.0,232.0 L 918.0,192.0" fill="none" stroke="#8C8378" stroke-width="1.8" opacity="0.38" stroke-linecap="round" stroke-linejoin="round"/>
<path d="M 918.0,232.0 L 952.6,252.0" fill="none" stroke="#8C8378" stroke-width="1.8" opacity="0.38" stroke-linecap="round" stroke-linejoin="round"/>
<path d="M 918.0,232.0 L 883.4,252.0" fill="none" stroke="#8C8378" stroke-width="1.8" opacity="0.38" stroke-linecap="round" stroke-linejoin="round"/>
<circle cx="918" cy="232" r="3" fill="#8C8378" stroke="#8C8378" stroke-width="0" opacity="0.38"/>
<path d="M 1014.0,300.0 L 1014.0,232.0" fill="none" stroke="#1B5C58" stroke-width="2.4" opacity="1" stroke-linecap="round" stroke-linejoin="round"/>
<path d="M 1014.0,232.0 L 1014.0,192.0" fill="none" stroke="#1B5C58" stroke-width="2.4" opacity="1" stroke-linecap="round" stroke-linejoin="round"/>
<path d="M 1014.0,232.0 L 1048.6,252.0" fill="none" stroke="#1B5C58" stroke-width="2.4" opacity="1" stroke-linecap="round" stroke-linejoin="round"/>
<path d="M 1014.0,232.0 L 979.4,252.0" fill="none" stroke="#1B5C58" stroke-width="2.4" opacity="1" stroke-linecap="round" stroke-linejoin="round"/>
<circle cx="1014" cy="232" r="4.5" fill="#1B5C58" stroke="#1B5C58" stroke-width="0" opacity="1"/>
<path d="M 1110.0,300.0 L 1110.0,232.0" fill="none" stroke="#8C8378" stroke-width="1.8" opacity="0.38" stroke-linecap="round" stroke-linejoin="round"/>
<path d="M 1110.0,232.0 L 1110.0,192.0" fill="none" stroke="#8C8378" stroke-width="1.8" opacity="0.38" stroke-linecap="round" stroke-linejoin="round"/>
<path d="M 1110.0,232.0 L 1144.6,252.0" fill="none" stroke="#8C8378" stroke-width="1.8" opacity="0.38" stroke-linecap="round" stroke-linejoin="round"/>
<path d="M 1110.0,232.0 L 1075.4,252.0" fill="none" stroke="#8C8378" stroke-width="1.8" opacity="0.38" stroke-linecap="round" stroke-linejoin="round"/>
<circle cx="1110" cy="232" r="3" fill="#8C8378" stroke="#8C8378" stroke-width="0" opacity="0.38"/>
<path d="M 1206.0,300.0 L 1206.0,232.0" fill="none" stroke="#1B5C58" stroke-width="1.8" opacity="0.75" stroke-linecap="round" stroke-linejoin="round"/>
<path d="M 1206.0,232.0 L 1206.0,192.0" fill="none" stroke="#1B5C58" stroke-width="1.8" opacity="0.75" stroke-linecap="round" stroke-linejoin="round"/>
<path d="M 1206.0,232.0 L 1240.6,252.0" fill="none" stroke="#1B5C58" stroke-width="1.8" opacity="0.75" stroke-linecap="round" stroke-linejoin="round"/>
<path d="M 1206.0,232.0 L 1171.4,252.0" fill="none" stroke="#1B5C58" stroke-width="1.8" opacity="0.75" stroke-linecap="round" stroke-linejoin="round"/>
<circle cx="1206" cy="232" r="3" fill="#1B5C58" stroke="#1B5C58" stroke-width="0" opacity="0.75"/>
<path d="M 1302.0,300.0 L 1302.0,232.0" fill="none" stroke="#8C8378" stroke-width="1.8" opacity="0.38" stroke-linecap="round" stroke-linejoin="round"/>
<path d="M 1302.0,232.0 L 1302.0,192.0" fill="none" stroke="#8C8378" stroke-width="1.8" opacity="0.38" stroke-linecap="round" stroke-linejoin="round"/>
<path d="M 1302.0,232.0 L 1336.6,252.0" fill="none" stroke="#8C8378" stroke-width="1.8" opacity="0.38" stroke-linecap="round" stroke-linejoin="round"/>
<path d="M 1302.0,232.0 L 1267.4,252.0" fill="none" stroke="#8C8378" stroke-width="1.8" opacity="0.38" stroke-linecap="round" stroke-linejoin="round"/>
<circle cx="1302" cy="232" r="3" fill="#8C8378" stroke="#8C8378" stroke-width="0" opacity="0.38"/>
<path d="M 1398.0,300.0 L 1398.0,232.0" fill="none" stroke="#1B5C58" stroke-width="1.8" opacity="0.75" stroke-linecap="round" stroke-linejoin="round"/>
<path d="M 1398.0,232.0 L 1398.0,192.0" fill="none" stroke="#1B5C58" stroke-width="1.8" opacity="0.75" stroke-linecap="round" stroke-linejoin="round"/>
<path d="M 1398.0,232.0 L 1432.6,252.0" fill="none" stroke="#1B5C58" stroke-width="1.8" opacity="0.75" stroke-linecap="round" stroke-linejoin="round"/>
<path d="M 1398.0,232.0 L 1363.4,252.0" fill="none" stroke="#1B5C58" stroke-width="1.8" opacity="0.75" stroke-linecap="round" stroke-linejoin="round"/>
<circle cx="1398" cy="232" r="3" fill="#1B5C58" stroke="#1B5C58" stroke-width="0" opacity="0.75"/>
<path d="M 1494.0,300.0 L 1494.0,232.0" fill="none" stroke="#8C8378" stroke-width="1.8" opacity="0.38" stroke-linecap="round" stroke-linejoin="round"/>
<path d="M 1494.0,232.0 L 1494.0,192.0" fill="none" stroke="#8C8378" stroke-width="1.8" opacity="0.38" stroke-linecap="round" stroke-linejoin="round"/>
<path d="M 1494.0,232.0 L 1528.6,252.0" fill="none" stroke="#8C8378" stroke-width="1.8" opacity="0.38" stroke-linecap="round" stroke-linejoin="round"/>
<path d="M 1494.0,232.0 L 1459.4,252.0" fill="none" stroke="#8C8378" stroke-width="1.8" opacity="0.38" stroke-linecap="round" stroke-linejoin="round"/>
<circle cx="1494" cy="232" r="3" fill="#8C8378" stroke="#8C8378" stroke-width="0" opacity="0.38"/>
<rect x="135" y="374" width="30" height="12" rx="1" fill="#8C8378" stroke="#8C8378" stroke-width="0" opacity="0.22"/>
<rect x="131" y="400" width="38" height="12" rx="1" fill="#8C8378" stroke="#8C8378" stroke-width="0" opacity="0.22"/>
<rect x="127" y="426" width="46" height="12" rx="1" fill="#8C8378" stroke="#8C8378" stroke-width="0" opacity="0.22"/>
<rect x="136" y="452" width="27" height="12" rx="1" fill="#8C8378" stroke="#8C8378" stroke-width="0" opacity="0.22"/>
<rect x="136" y="478" width="28" height="12" rx="1" fill="#8C8378" stroke="#8C8378" stroke-width="0" opacity="0.22"/>
<rect x="124" y="504" width="52" height="12" rx="1" fill="#8C8378" stroke="#8C8378" stroke-width="0" opacity="0.22"/>
<rect x="128" y="530" width="43" height="12" rx="1" fill="#8C8378" stroke="#8C8378" stroke-width="0" opacity="0.22"/>
<rect x="136" y="556" width="29" height="12" rx="1" fill="#8C8378" stroke="#8C8378" stroke-width="0" opacity="0.22"/>
<rect x="132" y="582" width="37" height="12" rx="1" fill="#8C8378" stroke="#8C8378" stroke-width="0" opacity="0.22"/>
<rect x="128" y="608" width="44" height="12" rx="1" fill="#8C8378" stroke="#8C8378" stroke-width="0" opacity="0.22"/>
<rect x="136" y="634" width="27" height="12" rx="1" fill="#8C8378" stroke="#8C8378" stroke-width="0" opacity="0.22"/>
<rect x="230" y="374" width="32" height="12" rx="1" fill="#8C8378" stroke="#8C8378" stroke-width="0" opacity="0.22"/>
<rect x="232" y="400" width="27" height="12" rx="1" fill="#8C8378" stroke="#8C8378" stroke-width="0" opacity="0.22"/>
<rect x="232" y="426" width="28" height="12" rx="1" fill="#8C8378" stroke="#8C8378" stroke-width="0" opacity="0.22"/>
<rect x="226" y="452" width="39" height="12" rx="1" fill="#8C8378" stroke="#8C8378" stroke-width="0" opacity="0.22"/>
<rect x="226" y="478" width="39" height="12" rx="1" fill="#8C8378" stroke="#8C8378" stroke-width="0" opacity="0.22"/>
<rect x="232" y="504" width="28" height="12" rx="1" fill="#8C8378" stroke="#8C8378" stroke-width="0" opacity="0.22"/>
<rect x="230" y="530" width="33" height="12" rx="1" fill="#8C8378" stroke="#8C8378" stroke-width="0" opacity="0.22"/>
<rect x="232" y="556" width="28" height="12" rx="1" fill="#8C8378" stroke="#8C8378" stroke-width="0" opacity="0.22"/>
<rect x="224" y="582" width="43" height="12" rx="1" fill="#8C8378" stroke="#8C8378" stroke-width="0" opacity="0.22"/>
<rect x="226" y="608" width="39" height="12" rx="1" fill="#8C8378" stroke="#8C8378" stroke-width="0" opacity="0.22"/>
<rect x="232" y="634" width="27" height="12" rx="1" fill="#8C8378" stroke="#8C8378" stroke-width="0" opacity="0.22"/>
<rect x="220" y="660" width="52" height="12" rx="1" fill="#8C8378" stroke="#8C8378" stroke-width="0" opacity="0.22"/>
<rect x="224" y="686" width="44" height="12" rx="1" fill="#8C8378" stroke="#8C8378" stroke-width="0" opacity="0.22"/>
<rect x="326" y="374" width="33" height="12" rx="1" fill="#8C8378" stroke="#8C8378" stroke-width="0" opacity="0.22"/>
<rect x="319" y="400" width="46" height="12" rx="1" fill="#8C8378" stroke="#8C8378" stroke-width="0" opacity="0.22"/>
<rect x="319" y="426" width="46" height="12" rx="1" fill="#8C8378" stroke="#8C8378" stroke-width="0" opacity="0.22"/>
<rect x="320" y="452" width="44" height="12" rx="1" fill="#8C8378" stroke="#8C8378" stroke-width="0" opacity="0.22"/>
<rect x="328" y="478" width="27" height="12" rx="1" fill="#8C8378" stroke="#8C8378" stroke-width="0" opacity="0.22"/>
<rect x="320" y="504" width="44" height="12" rx="1" fill="#8C8378" stroke="#8C8378" stroke-width="0" opacity="0.22"/>
<rect x="320" y="530" width="44" height="12" rx="1" fill="#8C8378" stroke="#8C8378" stroke-width="0" opacity="0.22"/>
<rect x="323" y="556" width="38" height="12" rx="1" fill="#8C8378" stroke="#8C8378" stroke-width="0" opacity="0.22"/>
<rect x="328" y="582" width="27" height="12" rx="1" fill="#8C8378" stroke="#8C8378" stroke-width="0" opacity="0.22"/>
<rect x="424" y="374" width="27" height="12" rx="1" fill="#8C8378" stroke="#8C8378" stroke-width="0" opacity="0.22"/>
<rect x="416" y="400" width="43" height="12" rx="1" fill="#8C8378" stroke="#8C8378" stroke-width="0" opacity="0.22"/>
<rect x="423" y="426" width="30" height="12" rx="1" fill="#8C8378" stroke="#8C8378" stroke-width="0" opacity="0.22"/>
<rect x="420" y="452" width="35" height="12" rx="1" fill="#8C8378" stroke="#8C8378" stroke-width="0" opacity="0.22"/>
<rect x="418" y="478" width="39" height="12" rx="1" fill="#8C8378" stroke="#8C8378" stroke-width="0" opacity="0.22"/>
<rect x="423" y="504" width="30" height="12" rx="1" fill="#8C8378" stroke="#8C8378" stroke-width="0" opacity="0.22"/>
<rect x="416" y="530" width="43" height="12" rx="1" fill="#8C8378" stroke="#8C8378" stroke-width="0" opacity="0.22"/>
<rect x="424" y="556" width="29" height="12" rx="1" fill="#8C8378" stroke="#8C8378" stroke-width="0" opacity="0.22"/>
<rect x="416" y="582" width="44" height="12" rx="1" fill="#8C8378" stroke="#8C8378" stroke-width="0" opacity="0.22"/>
<rect x="420" y="608" width="35" height="12" rx="1" fill="#8C8378" stroke="#8C8378" stroke-width="0" opacity="0.22"/>
<rect x="508" y="374" width="52" height="12" rx="1" fill="#8C8378" stroke="#8C8378" stroke-width="0" opacity="0.22"/>
<rect x="510" y="400" width="47" height="12" rx="1" fill="#8C8378" stroke="#8C8378" stroke-width="0" opacity="0.22"/>
<rect x="518" y="426" width="31" height="12" rx="1" fill="#8C8378" stroke="#8C8378" stroke-width="0" opacity="0.22"/>
<rect x="520" y="451" width="29" height="14" rx="1" fill="#1B5C58" stroke="#1B5C58" stroke-width="0" opacity="0.8"/>
<rect x="512" y="478" width="44" height="12" rx="1" fill="#8C8378" stroke="#8C8378" stroke-width="0" opacity="0.22"/>
<rect x="512" y="504" width="44" height="12" rx="1" fill="#8C8378" stroke="#8C8378" stroke-width="0" opacity="0.22"/>
<rect x="511" y="529" width="46" height="14" rx="1" fill="#1B5C58" stroke="#1B5C58" stroke-width="0" opacity="0.8"/>
<rect x="518" y="556" width="32" height="12" rx="1" fill="#8C8378" stroke="#8C8378" stroke-width="0" opacity="0.22"/>
<rect x="516" y="581" width="37" height="14" rx="1" fill="#1B5C58" stroke="#1B5C58" stroke-width="0" opacity="0.8"/>
<rect x="520" y="608" width="29" height="12" rx="1" fill="#8C8378" stroke="#8C8378" stroke-width="0" opacity="0.22"/>
<rect x="512" y="634" width="43" height="12" rx="1" fill="#8C8378" stroke="#8C8378" stroke-width="0" opacity="0.22"/>
<rect x="510" y="660" width="48" height="12" rx="1" fill="#8C8378" stroke="#8C8378" stroke-width="0" opacity="0.22"/>
<rect x="520" y="686" width="28" height="12" rx="1" fill="#8C8378" stroke="#8C8378" stroke-width="0" opacity="0.22"/>
<rect x="616" y="374" width="27" height="12" rx="1" fill="#8C8378" stroke="#8C8378" stroke-width="0" opacity="0.22"/>
<rect x="608" y="400" width="45" height="12" rx="1" fill="#8C8378" stroke="#8C8378" stroke-width="0" opacity="0.22"/>
<rect x="614" y="426" width="32" height="12" rx="1" fill="#8C8378" stroke="#8C8378" stroke-width="0" opacity="0.22"/>
<rect x="610" y="452" width="41" height="12" rx="1" fill="#8C8378" stroke="#8C8378" stroke-width="0" opacity="0.22"/>
<rect x="606" y="478" width="47" height="12" rx="1" fill="#8C8378" stroke="#8C8378" stroke-width="0" opacity="0.22"/>
<rect x="608" y="504" width="43" height="12" rx="1" fill="#8C8378" stroke="#8C8378" stroke-width="0" opacity="0.22"/>
<rect x="610" y="530" width="39" height="12" rx="1" fill="#8C8378" stroke="#8C8378" stroke-width="0" opacity="0.22"/>
<rect x="605" y="556" width="50" height="12" rx="1" fill="#8C8378" stroke="#8C8378" stroke-width="0" opacity="0.22"/>
<rect x="612" y="582" width="36" height="12" rx="1" fill="#8C8378" stroke="#8C8378" stroke-width="0" opacity="0.22"/>
<rect x="610" y="608" width="40" height="12" rx="1" fill="#8C8378" stroke="#8C8378" stroke-width="0" opacity="0.22"/>
<rect x="608" y="634" width="44" height="12" rx="1" fill="#8C8378" stroke="#8C8378" stroke-width="0" opacity="0.22"/>
<rect x="610" y="660" width="40" height="12" rx="1" fill="#8C8378" stroke="#8C8378" stroke-width="0" opacity="0.22"/>
<rect x="612" y="686" width="37" height="12" rx="1" fill="#8C8378" stroke="#8C8378" stroke-width="0" opacity="0.22"/>
<rect x="710" y="374" width="33" height="12" rx="1" fill="#8C8378" stroke="#8C8378" stroke-width="0" opacity="0.22"/>
<rect x="700" y="400" width="51" height="12" rx="1" fill="#8C8378" stroke="#8C8378" stroke-width="0" opacity="0.22"/>
<rect x="710" y="426" width="31" height="12" rx="1" fill="#8C8378" stroke="#8C8378" stroke-width="0" opacity="0.22"/>
<rect x="702" y="452" width="48" height="12" rx="1" fill="#8C8378" stroke="#8C8378" stroke-width="0" opacity="0.22"/>
<rect x="701" y="478" width="50" height="12" rx="1" fill="#8C8378" stroke="#8C8378" stroke-width="0" opacity="0.22"/>
<rect x="710" y="504" width="33" height="12" rx="1" fill="#8C8378" stroke="#8C8378" stroke-width="0" opacity="0.22"/>
<rect x="712" y="530" width="28" height="12" rx="1" fill="#8C8378" stroke="#8C8378" stroke-width="0" opacity="0.22"/>
<rect x="704" y="556" width="44" height="12" rx="1" fill="#8C8378" stroke="#8C8378" stroke-width="0" opacity="0.22"/>
<rect x="708" y="582" width="35" height="12" rx="1" fill="#8C8378" stroke="#8C8378" stroke-width="0" opacity="0.22"/>
<rect x="705" y="608" width="42" height="12" rx="1" fill="#8C8378" stroke="#8C8378" stroke-width="0" opacity="0.22"/>
<rect x="706" y="634" width="41" height="12" rx="1" fill="#8C8378" stroke="#8C8378" stroke-width="0" opacity="0.22"/>
<rect x="798" y="374" width="49" height="12" rx="1" fill="#8C8378" stroke="#8C8378" stroke-width="0" opacity="0.22"/>
<rect x="802" y="400" width="40" height="12" rx="1" fill="#8C8378" stroke="#8C8378" stroke-width="0" opacity="0.22"/>
<rect x="804" y="426" width="35" height="12" rx="1" fill="#8C8378" stroke="#8C8378" stroke-width="0" opacity="0.22"/>
<rect x="800" y="452" width="45" height="12" rx="1" fill="#8C8378" stroke="#8C8378" stroke-width="0" opacity="0.22"/>
<rect x="808" y="478" width="28" height="12" rx="1" fill="#8C8378" stroke="#8C8378" stroke-width="0" opacity="0.22"/>
<rect x="808" y="504" width="29" height="12" rx="1" fill="#8C8378" stroke="#8C8378" stroke-width="0" opacity="0.22"/>
<rect x="801" y="530" width="42" height="12" rx="1" fill="#8C8378" stroke="#8C8378" stroke-width="0" opacity="0.22"/>
<rect x="802" y="556" width="39" height="12" rx="1" fill="#8C8378" stroke="#8C8378" stroke-width="0" opacity="0.22"/>
<rect x="806" y="582" width="31" height="12" rx="1" fill="#8C8378" stroke="#8C8378" stroke-width="0" opacity="0.22"/>
<rect x="797" y="608" width="50" height="12" rx="1" fill="#8C8378" stroke="#8C8378" stroke-width="0" opacity="0.22"/>
<rect x="804" y="634" width="36" height="12" rx="1" fill="#8C8378" stroke="#8C8378" stroke-width="0" opacity="0.22"/>
<rect x="898" y="374" width="41" height="12" rx="1" fill="#8C8378" stroke="#8C8378" stroke-width="0" opacity="0.22"/>
<rect x="898" y="400" width="39" height="12" rx="1" fill="#8C8378" stroke="#8C8378" stroke-width="0" opacity="0.22"/>
<rect x="904" y="426" width="27" height="12" rx="1" fill="#8C8378" stroke="#8C8378" stroke-width="0" opacity="0.22"/>
<rect x="894" y="452" width="47" height="12" rx="1" fill="#8C8378" stroke="#8C8378" stroke-width="0" opacity="0.22"/>
<rect x="904" y="478" width="28" height="12" rx="1" fill="#8C8378" stroke="#8C8378" stroke-width="0" opacity="0.22"/>
<rect x="893" y="504" width="50" height="12" rx="1" fill="#8C8378" stroke="#8C8378" stroke-width="0" opacity="0.22"/>
<rect x="896" y="530" width="43" height="12" rx="1" fill="#8C8378" stroke="#8C8378" stroke-width="0" opacity="0.22"/>
<rect x="896" y="556" width="44" height="12" rx="1" fill="#8C8378" stroke="#8C8378" stroke-width="0" opacity="0.22"/>
<rect x="892" y="582" width="51" height="12" rx="1" fill="#8C8378" stroke="#8C8378" stroke-width="0" opacity="0.22"/>
<rect x="892" y="608" width="52" height="12" rx="1" fill="#8C8378" stroke="#8C8378" stroke-width="0" opacity="0.22"/>
<rect x="996" y="374" width="36" height="12" rx="1" fill="#8C8378" stroke="#8C8378" stroke-width="0" opacity="0.22"/>
<rect x="990" y="400" width="48" height="12" rx="1" fill="#8C8378" stroke="#8C8378" stroke-width="0" opacity="0.22"/>
<rect x="996" y="426" width="37" height="12" rx="1" fill="#8C8378" stroke="#8C8378" stroke-width="0" opacity="0.22"/>
<rect x="992" y="452" width="45" height="12" rx="1" fill="#8C8378" stroke="#8C8378" stroke-width="0" opacity="0.22"/>
<rect x="994" y="478" width="41" height="12" rx="1" fill="#8C8378" stroke="#8C8378" stroke-width="0" opacity="0.22"/>
<rect x="984" y="502" width="60" height="16" rx="1" fill="#1B5C58" stroke="#1B5C58" stroke-width="0" opacity="1"/>
<rect x="988" y="530" width="51" height="12" rx="1" fill="#8C8378" stroke="#8C8378" stroke-width="0" opacity="0.22"/>
<rect x="994" y="556" width="40" height="12" rx="1" fill="#8C8378" stroke="#8C8378" stroke-width="0" opacity="0.22"/>
<rect x="1000" y="582" width="28" height="12" rx="1" fill="#8C8378" stroke="#8C8378" stroke-width="0" opacity="0.22"/>
<rect x="988" y="608" width="52" height="12" rx="1" fill="#8C8378" stroke="#8C8378" stroke-width="0" opacity="0.22"/>
<rect x="1000" y="634" width="28" height="12" rx="1" fill="#8C8378" stroke="#8C8378" stroke-width="0" opacity="0.22"/>
<rect x="1090" y="374" width="41" height="12" rx="1" fill="#8C8378" stroke="#8C8378" stroke-width="0" opacity="0.22"/>
<rect x="1086" y="400" width="48" height="12" rx="1" fill="#8C8378" stroke="#8C8378" stroke-width="0" opacity="0.22"/>
<rect x="1086" y="426" width="47" height="12" rx="1" fill="#8C8378" stroke="#8C8378" stroke-width="0" opacity="0.22"/>
<rect x="1096" y="452" width="28" height="12" rx="1" fill="#8C8378" stroke="#8C8378" stroke-width="0" opacity="0.22"/>
<rect x="1096" y="478" width="27" height="12" rx="1" fill="#8C8378" stroke="#8C8378" stroke-width="0" opacity="0.22"/>
<rect x="1086" y="504" width="49" height="12" rx="1" fill="#8C8378" stroke="#8C8378" stroke-width="0" opacity="0.22"/>
<rect x="1086" y="530" width="48" height="12" rx="1" fill="#8C8378" stroke="#8C8378" stroke-width="0" opacity="0.22"/>
<rect x="1092" y="556" width="35" height="12" rx="1" fill="#8C8378" stroke="#8C8378" stroke-width="0" opacity="0.22"/>
<rect x="1087" y="582" width="46" height="12" rx="1" fill="#8C8378" stroke="#8C8378" stroke-width="0" opacity="0.22"/>
<rect x="1088" y="608" width="44" height="12" rx="1" fill="#8C8378" stroke="#8C8378" stroke-width="0" opacity="0.22"/>
<rect x="1086" y="634" width="47" height="12" rx="1" fill="#8C8378" stroke="#8C8378" stroke-width="0" opacity="0.22"/>
<rect x="1186" y="374" width="40" height="12" rx="1" fill="#8C8378" stroke="#8C8378" stroke-width="0" opacity="0.22"/>
<rect x="1188" y="400" width="35" height="12" rx="1" fill="#8C8378" stroke="#8C8378" stroke-width="0" opacity="0.22"/>
<rect x="1182" y="426" width="48" height="12" rx="1" fill="#8C8378" stroke="#8C8378" stroke-width="0" opacity="0.22"/>
<rect x="1187" y="451" width="38" height="14" rx="1" fill="#1B5C58" stroke="#1B5C58" stroke-width="0" opacity="0.8"/>
<rect x="1182" y="478" width="47" height="12" rx="1" fill="#8C8378" stroke="#8C8378" stroke-width="0" opacity="0.22"/>
<rect x="1188" y="504" width="37" height="12" rx="1" fill="#8C8378" stroke="#8C8378" stroke-width="0" opacity="0.22"/>
<rect x="1193" y="529" width="26" height="14" rx="1" fill="#1B5C58" stroke="#1B5C58" stroke-width="0" opacity="0.8"/>
<rect x="1186" y="556" width="40" height="12" rx="1" fill="#8C8378" stroke="#8C8378" stroke-width="0" opacity="0.22"/>
<rect x="1188" y="581" width="37" height="14" rx="1" fill="#1B5C58" stroke="#1B5C58" stroke-width="0" opacity="0.8"/>
<rect x="1190" y="608" width="31" height="12" rx="1" fill="#8C8378" stroke="#8C8378" stroke-width="0" opacity="0.22"/>
<rect x="1184" y="634" width="45" height="12" rx="1" fill="#8C8378" stroke="#8C8378" stroke-width="0" opacity="0.22"/>
<rect x="1192" y="660" width="29" height="12" rx="1" fill="#8C8378" stroke="#8C8378" stroke-width="0" opacity="0.22"/>
<rect x="1186" y="686" width="41" height="12" rx="1" fill="#8C8378" stroke="#8C8378" stroke-width="0" opacity="0.22"/>
<rect x="1192" y="712" width="27" height="12" rx="1" fill="#8C8378" stroke="#8C8378" stroke-width="0" opacity="0.22"/>
<rect x="1190" y="738" width="32" height="12" rx="1" fill="#8C8378" stroke="#8C8378" stroke-width="0" opacity="0.22"/>
<rect x="1284" y="374" width="35" height="12" rx="1" fill="#8C8378" stroke="#8C8378" stroke-width="0" opacity="0.22"/>
<rect x="1287" y="400" width="30" height="12" rx="1" fill="#8C8378" stroke="#8C8378" stroke-width="0" opacity="0.22"/>
<rect x="1278" y="426" width="49" height="12" rx="1" fill="#8C8378" stroke="#8C8378" stroke-width="0" opacity="0.22"/>
<rect x="1286" y="452" width="33" height="12" rx="1" fill="#8C8378" stroke="#8C8378" stroke-width="0" opacity="0.22"/>
<rect x="1283" y="478" width="38" height="12" rx="1" fill="#8C8378" stroke="#8C8378" stroke-width="0" opacity="0.22"/>
<rect x="1283" y="504" width="38" height="12" rx="1" fill="#8C8378" stroke="#8C8378" stroke-width="0" opacity="0.22"/>
<rect x="1282" y="530" width="41" height="12" rx="1" fill="#8C8378" stroke="#8C8378" stroke-width="0" opacity="0.22"/>
<rect x="1288" y="556" width="28" height="12" rx="1" fill="#8C8378" stroke="#8C8378" stroke-width="0" opacity="0.22"/>
<rect x="1286" y="582" width="31" height="12" rx="1" fill="#8C8378" stroke="#8C8378" stroke-width="0" opacity="0.22"/>
<rect x="1282" y="608" width="40" height="12" rx="1" fill="#8C8378" stroke="#8C8378" stroke-width="0" opacity="0.22"/>
<rect x="1283" y="634" width="38" height="12" rx="1" fill="#8C8378" stroke="#8C8378" stroke-width="0" opacity="0.22"/>
<rect x="1280" y="660" width="43" height="12" rx="1" fill="#8C8378" stroke="#8C8378" stroke-width="0" opacity="0.22"/>
<rect x="1285" y="686" width="34" height="12" rx="1" fill="#8C8378" stroke="#8C8378" stroke-width="0" opacity="0.22"/>
<rect x="1287" y="712" width="30" height="12" rx="1" fill="#8C8378" stroke="#8C8378" stroke-width="0" opacity="0.22"/>
<rect x="1276" y="738" width="52" height="12" rx="1" fill="#8C8378" stroke="#8C8378" stroke-width="0" opacity="0.22"/>
<rect x="1376" y="374" width="43" height="12" rx="1" fill="#8C8378" stroke="#8C8378" stroke-width="0" opacity="0.22"/>
<rect x="1381" y="400" width="34" height="12" rx="1" fill="#8C8378" stroke="#8C8378" stroke-width="0" opacity="0.22"/>
<rect x="1374" y="426" width="48" height="12" rx="1" fill="#8C8378" stroke="#8C8378" stroke-width="0" opacity="0.22"/>
<rect x="1378" y="451" width="39" height="14" rx="1" fill="#1B5C58" stroke="#1B5C58" stroke-width="0" opacity="0.8"/>
<rect x="1380" y="478" width="37" height="12" rx="1" fill="#8C8378" stroke="#8C8378" stroke-width="0" opacity="0.22"/>
<rect x="1374" y="504" width="47" height="12" rx="1" fill="#8C8378" stroke="#8C8378" stroke-width="0" opacity="0.22"/>
<rect x="1379" y="529" width="38" height="14" rx="1" fill="#1B5C58" stroke="#1B5C58" stroke-width="0" opacity="0.8"/>
<rect x="1382" y="556" width="33" height="12" rx="1" fill="#8C8378" stroke="#8C8378" stroke-width="0" opacity="0.22"/>
<rect x="1383" y="581" width="30" height="14" rx="1" fill="#1B5C58" stroke="#1B5C58" stroke-width="0" opacity="0.8"/>
<rect x="1384" y="608" width="28" height="12" rx="1" fill="#8C8378" stroke="#8C8378" stroke-width="0" opacity="0.22"/>
<rect x="1382" y="634" width="31" height="12" rx="1" fill="#8C8378" stroke="#8C8378" stroke-width="0" opacity="0.22"/>
<rect x="1383" y="660" width="30" height="12" rx="1" fill="#8C8378" stroke="#8C8378" stroke-width="0" opacity="0.22"/>
<rect x="1470" y="374" width="47" height="12" rx="1" fill="#8C8378" stroke="#8C8378" stroke-width="0" opacity="0.22"/>
<rect x="1478" y="400" width="33" height="12" rx="1" fill="#8C8378" stroke="#8C8378" stroke-width="0" opacity="0.22"/>
<rect x="1481" y="426" width="26" height="12" rx="1" fill="#8C8378" stroke="#8C8378" stroke-width="0" opacity="0.22"/>
<rect x="1474" y="452" width="41" height="12" rx="1" fill="#8C8378" stroke="#8C8378" stroke-width="0" opacity="0.22"/>
<rect x="1468" y="478" width="52" height="12" rx="1" fill="#8C8378" stroke="#8C8378" stroke-width="0" opacity="0.22"/>
<rect x="1472" y="504" width="44" height="12" rx="1" fill="#8C8378" stroke="#8C8378" stroke-width="0" opacity="0.22"/>
<rect x="1478" y="530" width="31" height="12" rx="1" fill="#8C8378" stroke="#8C8378" stroke-width="0" opacity="0.22"/>
<rect x="1477" y="556" width="34" height="12" rx="1" fill="#8C8378" stroke="#8C8378" stroke-width="0" opacity="0.22"/>
<rect x="1476" y="582" width="35" height="12" rx="1" fill="#8C8378" stroke="#8C8378" stroke-width="0" opacity="0.22"/>
<rect x="1481" y="608" width="26" height="12" rx="1" fill="#8C8378" stroke="#8C8378" stroke-width="0" opacity="0.22"/>
<path d="M 1014,510 Q 774,362 534,458" fill="none" stroke="#1B5C58" stroke-width="1.6" opacity=".55" stroke-dasharray="5 5"/>
<circle cx="534" cy="458" r="5" fill="none" stroke="#1B5C58" stroke-width="2" opacity="1"/>
<path d="M 1014,510 Q 774,414 534,536" fill="none" stroke="#1B5C58" stroke-width="1.6" opacity=".55" stroke-dasharray="5 5"/>
<circle cx="534" cy="536" r="5" fill="none" stroke="#1B5C58" stroke-width="2" opacity="1"/>
<path d="M 1014,510 Q 1110,435 1206,536" fill="none" stroke="#1B5C58" stroke-width="1.6" opacity=".55" stroke-dasharray="5 5"/>
<circle cx="1206" cy="536" r="5" fill="none" stroke="#1B5C58" stroke-width="2" opacity="1"/>
<path d="M 1014,510 Q 1206,369 1398,458" fill="none" stroke="#1B5C58" stroke-width="1.6" opacity=".55" stroke-dasharray="5 5"/>
<circle cx="1398" cy="458" r="5" fill="none" stroke="#1B5C58" stroke-width="2" opacity="1"/>
<path d="M 1014,510 Q 1206,421 1398,588" fill="none" stroke="#1B5C58" stroke-width="1.6" opacity=".55" stroke-dasharray="5 5"/>
<circle cx="1398" cy="588" r="5" fill="none" stroke="#1B5C58" stroke-width="2" opacity="1"/>
<circle cx="1014" cy="510" r="14" fill="none" stroke="#1B5C58" stroke-width="2.4" opacity="1"/>
<path d="M 1014.0,528.0 L 1014.0,812.0" fill="none" stroke="#1B5C58" stroke-width="1.6" opacity="0.6" stroke-linecap="round" stroke-linejoin="round" stroke-dasharray="4 5"/>
<path d="M 1014.0,812.0 L 1224.0,812.0" fill="none" stroke="#1B5C58" stroke-width="1.6" opacity="0.6" stroke-linecap="round" stroke-linejoin="round"/>
<text x="1236" y="806" font-size="20" fill="#1B5C58" opacity="1" font-weight="700" letter-spacing="2.6" text-anchor="start">QUERY</text>
<text x="1236" y="834" font-size="20" fill="#8C8378" opacity="1" font-weight="500" letter-spacing="2.6" text-anchor="start">5 SIMILAR EVENTS</text>
<path d="M 90.0,866.0 L 1510.0,866.0" fill="none" stroke="#1B5C58" stroke-width="1.6" opacity="0.45" stroke-linecap="round" stroke-linejoin="round"/>
<path d="M 150.0,866.0 L 150.0,876.0" fill="none" stroke="#8C8378" stroke-width="1.5" opacity="0.6" stroke-linecap="round" stroke-linejoin="round"/>
<text x="150" y="902" font-size="19" fill="#8C8378" opacity="1" font-weight="500" letter-spacing="2.6" text-anchor="start">2014</text>
<path d="M 598.0,866.0 L 598.0,876.0" fill="none" stroke="#8C8378" stroke-width="1.5" opacity="0.6" stroke-linecap="round" stroke-linejoin="round"/>
<text x="598" y="902" font-size="19" fill="#8C8378" opacity="1" font-weight="500" letter-spacing="2.6" text-anchor="start">2018</text>
<path d="M 1046.0,866.0 L 1046.0,876.0" fill="none" stroke="#8C8378" stroke-width="1.5" opacity="0.6" stroke-linecap="round" stroke-linejoin="round"/>
<text x="1046" y="902" font-size="19" fill="#8C8378" opacity="1" font-weight="500" letter-spacing="2.6" text-anchor="start">2022</text>
<path d="M 1494.0,866.0 L 1494.0,876.0" fill="none" stroke="#8C8378" stroke-width="1.5" opacity="0.6" stroke-linecap="round" stroke-linejoin="round"/>
<text x="1494" y="902" font-size="19" fill="#8C8378" opacity="1" font-weight="500" letter-spacing="2.6" text-anchor="start">2026</text>
<text x="90" y="942" font-size="21" fill="#1B5C58" opacity="0.85" font-weight="500" letter-spacing="2.6" text-anchor="start">SEMANTIC SEARCH  /  PYTHON + SQL  /  AUTOMATED WEEKLY SAFETY REPORT</text>
</g></svg>
